<svg xmlns="http://www.w3.org/2000/svg" width="215.9mm" height="279.4mm" viewBox="0 0 215.9 279.4">
<rect x="0" y="0" width="215.9" height="279.4" fill="#fff"/>
<text x="15.000" y="16.000" font-size="5" font-family="Helvetica,Arial,sans-serif" fill="#000" text-anchor="start">pySimpleView calibration target</text>
<text x="15.000" y="22.000" font-size="3" font-family="Helvetica,Arial,sans-serif" fill="#000" text-anchor="start">PRINT AT 100% / ACTUAL SIZE (disable &quot;fit to page&quot; / scaling).</text>
<text x="15.000" y="27.000" font-size="3" font-family="Helvetica,Arial,sans-serif" fill="#000" text-anchor="start">Then verify the 100 mm bar below with a real ruler before trusting it.</text>
<line x1="15.000" y1="40.000" x2="115.000" y2="40.000" stroke="#000" stroke-width="0.400"/>
<line x1="15.000" y1="37.000" x2="15.000" y2="43.000" stroke="#000" stroke-width="0.400"/>
<line x1="115.000" y1="37.000" x2="115.000" y2="43.000" stroke="#000" stroke-width="0.400"/>
<text x="65.000" y="36.000" font-size="3.2" font-family="Helvetica,Arial,sans-serif" fill="#000" text-anchor="middle">100.00 mm  (check with ruler/caliper)</text>
<line x1="15.000" y1="60.000" x2="15.000" y2="120.000" stroke="#000" stroke-width="0.350"/>
<line x1="15.000" y1="60.000" x2="75.000" y2="60.000" stroke="#000" stroke-width="0.350"/>
<text x="15.000" y="58.500" font-size="2.6" font-family="Helvetica,Arial,sans-serif" fill="#000" text-anchor="middle">0</text>
<text x="13.500" y="60.900" font-size="2.6" font-family="Helvetica,Arial,sans-serif" fill="#000" text-anchor="end">0</text>
<line x1="16.000" y1="60.000" x2="16.000" y2="120.000" stroke="#000" stroke-width="0.080"/>
<line x1="15.000" y1="61.000" x2="75.000" y2="61.000" stroke="#000" stroke-width="0.080"/>
<line x1="17.000" y1="60.000" x2="17.000" y2="120.000" stroke="#000" stroke-width="0.080"/>
<line x1="15.000" y1="62.000" x2="75.000" y2="62.000" stroke="#000" stroke-width="0.080"/>
<line x1="18.000" y1="60.000" x2="18.000" y2="120.000" stroke="#000" stroke-width="0.080"/>
<line x1="15.000" y1="63.000" x2="75.000" y2="63.000" stroke="#000" stroke-width="0.080"/>
<line x1="19.000" y1="60.000" x2="19.000" y2="120.000" stroke="#000" stroke-width="0.080"/>
<line x1="15.000" y1="64.000" x2="75.000" y2="64.000" stroke="#000" stroke-width="0.080"/>
<line x1="20.000" y1="60.000" x2="20.000" y2="120.000" stroke="#000" stroke-width="0.200"/>
<line x1="15.000" y1="65.000" x2="75.000" y2="65.000" stroke="#000" stroke-width="0.200"/>
<line x1="21.000" y1="60.000" x2="21.000" y2="120.000" stroke="#000" stroke-width="0.080"/>
<line x1="15.000" y1="66.000" x2="75.000" y2="66.000" stroke="#000" stroke-width="0.080"/>
<line x1="22.000" y1="60.000" x2="22.000" y2="120.000" stroke="#000" stroke-width="0.080"/>
<line x1="15.000" y1="67.000" x2="75.000" y2="67.000" stroke="#000" stroke-width="0.080"/>
<line x1="23.000" y1="60.000" x2="23.000" y2="120.000" stroke="#000" stroke-width="0.080"/>
<line x1="15.000" y1="68.000" x2="75.000" y2="68.000" stroke="#000" stroke-width="0.080"/>
<line x1="24.000" y1="60.000" x2="24.000" y2="120.000" stroke="#000" stroke-width="0.080"/>
<line x1="15.000" y1="69.000" x2="75.000" y2="69.000" stroke="#000" stroke-width="0.080"/>
<line x1="25.000" y1="60.000" x2="25.000" y2="120.000" stroke="#000" stroke-width="0.350"/>
<line x1="15.000" y1="70.000" x2="75.000" y2="70.000" stroke="#000" stroke-width="0.350"/>
<text x="25.000" y="58.500" font-size="2.6" font-family="Helvetica,Arial,sans-serif" fill="#000" text-anchor="middle">10</text>
<text x="13.500" y="70.900" font-size="2.6" font-family="Helvetica,Arial,sans-serif" fill="#000" text-anchor="end">10</text>
<line x1="26.000" y1="60.000" x2="26.000" y2="120.000" stroke="#000" stroke-width="0.080"/>
<line x1="15.000" y1="71.000" x2="75.000" y2="71.000" stroke="#000" stroke-width="0.080"/>
<line x1="27.000" y1="60.000" x2="27.000" y2="120.000" stroke="#000" stroke-width="0.080"/>
<line x1="15.000" y1="72.000" x2="75.000" y2="72.000" stroke="#000" stroke-width="0.080"/>
<line x1="28.000" y1="60.000" x2="28.000" y2="120.000" stroke="#000" stroke-width="0.080"/>
<line x1="15.000" y1="73.000" x2="75.000" y2="73.000" stroke="#000" stroke-width="0.080"/>
<line x1="29.000" y1="60.000" x2="29.000" y2="120.000" stroke="#000" stroke-width="0.080"/>
<line x1="15.000" y1="74.000" x2="75.000" y2="74.000" stroke="#000" stroke-width="0.080"/>
<line x1="30.000" y1="60.000" x2="30.000" y2="120.000" stroke="#000" stroke-width="0.200"/>
<line x1="15.000" y1="75.000" x2="75.000" y2="75.000" stroke="#000" stroke-width="0.200"/>
<line x1="31.000" y1="60.000" x2="31.000" y2="120.000" stroke="#000" stroke-width="0.080"/>
<line x1="15.000" y1="76.000" x2="75.000" y2="76.000" stroke="#000" stroke-width="0.080"/>
<line x1="32.000" y1="60.000" x2="32.000" y2="120.000" stroke="#000" stroke-width="0.080"/>
<line x1="15.000" y1="77.000" x2="75.000" y2="77.000" stroke="#000" stroke-width="0.080"/>
<line x1="33.000" y1="60.000" x2="33.000" y2="120.000" stroke="#000" stroke-width="0.080"/>
<line x1="15.000" y1="78.000" x2="75.000" y2="78.000" stroke="#000" stroke-width="0.080"/>
<line x1="34.000" y1="60.000" x2="34.000" y2="120.000" stroke="#000" stroke-width="0.080"/>
<line x1="15.000" y1="79.000" x2="75.000" y2="79.000" stroke="#000" stroke-width="0.080"/>
<line x1="35.000" y1="60.000" x2="35.000" y2="120.000" stroke="#000" stroke-width="0.350"/>
<line x1="15.000" y1="80.000" x2="75.000" y2="80.000" stroke="#000" stroke-width="0.350"/>
<text x="35.000" y="58.500" font-size="2.6" font-family="Helvetica,Arial,sans-serif" fill="#000" text-anchor="middle">20</text>
<text x="13.500" y="80.900" font-size="2.6" font-family="Helvetica,Arial,sans-serif" fill="#000" text-anchor="end">20</text>
<line x1="36.000" y1="60.000" x2="36.000" y2="120.000" stroke="#000" stroke-width="0.080"/>
<line x1="15.000" y1="81.000" x2="75.000" y2="81.000" stroke="#000" stroke-width="0.080"/>
<line x1="37.000" y1="60.000" x2="37.000" y2="120.000" stroke="#000" stroke-width="0.080"/>
<line x1="15.000" y1="82.000" x2="75.000" y2="82.000" stroke="#000" stroke-width="0.080"/>
<line x1="38.000" y1="60.000" x2="38.000" y2="120.000" stroke="#000" stroke-width="0.080"/>
<line x1="15.000" y1="83.000" x2="75.000" y2="83.000" stroke="#000" stroke-width="0.080"/>
<line x1="39.000" y1="60.000" x2="39.000" y2="120.000" stroke="#000" stroke-width="0.080"/>
<line x1="15.000" y1="84.000" x2="75.000" y2="84.000" stroke="#000" stroke-width="0.080"/>
<line x1="40.000" y1="60.000" x2="40.000" y2="120.000" stroke="#000" stroke-width="0.200"/>
<line x1="15.000" y1="85.000" x2="75.000" y2="85.000" stroke="#000" stroke-width="0.200"/>
<line x1="41.000" y1="60.000" x2="41.000" y2="120.000" stroke="#000" stroke-width="0.080"/>
<line x1="15.000" y1="86.000" x2="75.000" y2="86.000" stroke="#000" stroke-width="0.080"/>
<line x1="42.000" y1="60.000" x2="42.000" y2="120.000" stroke="#000" stroke-width="0.080"/>
<line x1="15.000" y1="87.000" x2="75.000" y2="87.000" stroke="#000" stroke-width="0.080"/>
<line x1="43.000" y1="60.000" x2="43.000" y2="120.000" stroke="#000" stroke-width="0.080"/>
<line x1="15.000" y1="88.000" x2="75.000" y2="88.000" stroke="#000" stroke-width="0.080"/>
<line x1="44.000" y1="60.000" x2="44.000" y2="120.000" stroke="#000" stroke-width="0.080"/>
<line x1="15.000" y1="89.000" x2="75.000" y2="89.000" stroke="#000" stroke-width="0.080"/>
<line x1="45.000" y1="60.000" x2="45.000" y2="120.000" stroke="#000" stroke-width="0.350"/>
<line x1="15.000" y1="90.000" x2="75.000" y2="90.000" stroke="#000" stroke-width="0.350"/>
<text x="45.000" y="58.500" font-size="2.6" font-family="Helvetica,Arial,sans-serif" fill="#000" text-anchor="middle">30</text>
<text x="13.500" y="90.900" font-size="2.6" font-family="Helvetica,Arial,sans-serif" fill="#000" text-anchor="end">30</text>
<line x1="46.000" y1="60.000" x2="46.000" y2="120.000" stroke="#000" stroke-width="0.080"/>
<line x1="15.000" y1="91.000" x2="75.000" y2="91.000" stroke="#000" stroke-width="0.080"/>
<line x1="47.000" y1="60.000" x2="47.000" y2="120.000" stroke="#000" stroke-width="0.080"/>
<line x1="15.000" y1="92.000" x2="75.000" y2="92.000" stroke="#000" stroke-width="0.080"/>
<line x1="48.000" y1="60.000" x2="48.000" y2="120.000" stroke="#000" stroke-width="0.080"/>
<line x1="15.000" y1="93.000" x2="75.000" y2="93.000" stroke="#000" stroke-width="0.080"/>
<line x1="49.000" y1="60.000" x2="49.000" y2="120.000" stroke="#000" stroke-width="0.080"/>
<line x1="15.000" y1="94.000" x2="75.000" y2="94.000" stroke="#000" stroke-width="0.080"/>
<line x1="50.000" y1="60.000" x2="50.000" y2="120.000" stroke="#000" stroke-width="0.200"/>
<line x1="15.000" y1="95.000" x2="75.000" y2="95.000" stroke="#000" stroke-width="0.200"/>
<line x1="51.000" y1="60.000" x2="51.000" y2="120.000" stroke="#000" stroke-width="0.080"/>
<line x1="15.000" y1="96.000" x2="75.000" y2="96.000" stroke="#000" stroke-width="0.080"/>
<line x1="52.000" y1="60.000" x2="52.000" y2="120.000" stroke="#000" stroke-width="0.080"/>
<line x1="15.000" y1="97.000" x2="75.000" y2="97.000" stroke="#000" stroke-width="0.080"/>
<line x1="53.000" y1="60.000" x2="53.000" y2="120.000" stroke="#000" stroke-width="0.080"/>
<line x1="15.000" y1="98.000" x2="75.000" y2="98.000" stroke="#000" stroke-width="0.080"/>
<line x1="54.000" y1="60.000" x2="54.000" y2="120.000" stroke="#000" stroke-width="0.080"/>
<line x1="15.000" y1="99.000" x2="75.000" y2="99.000" stroke="#000" stroke-width="0.080"/>
<line x1="55.000" y1="60.000" x2="55.000" y2="120.000" stroke="#000" stroke-width="0.350"/>
<line x1="15.000" y1="100.000" x2="75.000" y2="100.000" stroke="#000" stroke-width="0.350"/>
<text x="55.000" y="58.500" font-size="2.6" font-family="Helvetica,Arial,sans-serif" fill="#000" text-anchor="middle">40</text>
<text x="13.500" y="100.900" font-size="2.6" font-family="Helvetica,Arial,sans-serif" fill="#000" text-anchor="end">40</text>
<line x1="56.000" y1="60.000" x2="56.000" y2="120.000" stroke="#000" stroke-width="0.080"/>
<line x1="15.000" y1="101.000" x2="75.000" y2="101.000" stroke="#000" stroke-width="0.080"/>
<line x1="57.000" y1="60.000" x2="57.000" y2="120.000" stroke="#000" stroke-width="0.080"/>
<line x1="15.000" y1="102.000" x2="75.000" y2="102.000" stroke="#000" stroke-width="0.080"/>
<line x1="58.000" y1="60.000" x2="58.000" y2="120.000" stroke="#000" stroke-width="0.080"/>
<line x1="15.000" y1="103.000" x2="75.000" y2="103.000" stroke="#000" stroke-width="0.080"/>
<line x1="59.000" y1="60.000" x2="59.000" y2="120.000" stroke="#000" stroke-width="0.080"/>
<line x1="15.000" y1="104.000" x2="75.000" y2="104.000" stroke="#000" stroke-width="0.080"/>
<line x1="60.000" y1="60.000" x2="60.000" y2="120.000" stroke="#000" stroke-width="0.200"/>
<line x1="15.000" y1="105.000" x2="75.000" y2="105.000" stroke="#000" stroke-width="0.200"/>
<line x1="61.000" y1="60.000" x2="61.000" y2="120.000" stroke="#000" stroke-width="0.080"/>
<line x1="15.000" y1="106.000" x2="75.000" y2="106.000" stroke="#000" stroke-width="0.080"/>
<line x1="62.000" y1="60.000" x2="62.000" y2="120.000" stroke="#000" stroke-width="0.080"/>
<line x1="15.000" y1="107.000" x2="75.000" y2="107.000" stroke="#000" stroke-width="0.080"/>
<line x1="63.000" y1="60.000" x2="63.000" y2="120.000" stroke="#000" stroke-width="0.080"/>
<line x1="15.000" y1="108.000" x2="75.000" y2="108.000" stroke="#000" stroke-width="0.080"/>
<line x1="64.000" y1="60.000" x2="64.000" y2="120.000" stroke="#000" stroke-width="0.080"/>
<line x1="15.000" y1="109.000" x2="75.000" y2="109.000" stroke="#000" stroke-width="0.080"/>
<line x1="65.000" y1="60.000" x2="65.000" y2="120.000" stroke="#000" stroke-width="0.350"/>
<line x1="15.000" y1="110.000" x2="75.000" y2="110.000" stroke="#000" stroke-width="0.350"/>
<text x="65.000" y="58.500" font-size="2.6" font-family="Helvetica,Arial,sans-serif" fill="#000" text-anchor="middle">50</text>
<text x="13.500" y="110.900" font-size="2.6" font-family="Helvetica,Arial,sans-serif" fill="#000" text-anchor="end">50</text>
<line x1="66.000" y1="60.000" x2="66.000" y2="120.000" stroke="#000" stroke-width="0.080"/>
<line x1="15.000" y1="111.000" x2="75.000" y2="111.000" stroke="#000" stroke-width="0.080"/>
<line x1="67.000" y1="60.000" x2="67.000" y2="120.000" stroke="#000" stroke-width="0.080"/>
<line x1="15.000" y1="112.000" x2="75.000" y2="112.000" stroke="#000" stroke-width="0.080"/>
<line x1="68.000" y1="60.000" x2="68.000" y2="120.000" stroke="#000" stroke-width="0.080"/>
<line x1="15.000" y1="113.000" x2="75.000" y2="113.000" stroke="#000" stroke-width="0.080"/>
<line x1="69.000" y1="60.000" x2="69.000" y2="120.000" stroke="#000" stroke-width="0.080"/>
<line x1="15.000" y1="114.000" x2="75.000" y2="114.000" stroke="#000" stroke-width="0.080"/>
<line x1="70.000" y1="60.000" x2="70.000" y2="120.000" stroke="#000" stroke-width="0.200"/>
<line x1="15.000" y1="115.000" x2="75.000" y2="115.000" stroke="#000" stroke-width="0.200"/>
<line x1="71.000" y1="60.000" x2="71.000" y2="120.000" stroke="#000" stroke-width="0.080"/>
<line x1="15.000" y1="116.000" x2="75.000" y2="116.000" stroke="#000" stroke-width="0.080"/>
<line x1="72.000" y1="60.000" x2="72.000" y2="120.000" stroke="#000" stroke-width="0.080"/>
<line x1="15.000" y1="117.000" x2="75.000" y2="117.000" stroke="#000" stroke-width="0.080"/>
<line x1="73.000" y1="60.000" x2="73.000" y2="120.000" stroke="#000" stroke-width="0.080"/>
<line x1="15.000" y1="118.000" x2="75.000" y2="118.000" stroke="#000" stroke-width="0.080"/>
<line x1="74.000" y1="60.000" x2="74.000" y2="120.000" stroke="#000" stroke-width="0.080"/>
<line x1="15.000" y1="119.000" x2="75.000" y2="119.000" stroke="#000" stroke-width="0.080"/>
<line x1="75.000" y1="60.000" x2="75.000" y2="120.000" stroke="#000" stroke-width="0.350"/>
<line x1="15.000" y1="120.000" x2="75.000" y2="120.000" stroke="#000" stroke-width="0.350"/>
<text x="75.000" y="58.500" font-size="2.6" font-family="Helvetica,Arial,sans-serif" fill="#000" text-anchor="middle">60</text>
<text x="13.500" y="120.900" font-size="2.6" font-family="Helvetica,Arial,sans-serif" fill="#000" text-anchor="end">60</text>
<text x="15.000" y="126.000" font-size="3" font-family="Helvetica,Arial,sans-serif" fill="#000" text-anchor="start">1 mm grid  |  heavy lines every 5 mm  |  labels every 10 mm (units: mm)</text>
<line x1="41.000" y1="90.000" x2="49.000" y2="90.000" stroke="#c00" stroke-width="0.250"/>
<line x1="45.000" y1="86.000" x2="45.000" y2="94.000" stroke="#c00" stroke-width="0.250"/>
<text x="15.000" y="137.000" font-size="3" font-family="Helvetica,Arial,sans-serif" fill="#000" text-anchor="start">0.5 mm divisions over 20 mm (near print-resolution limit — use only at higher mag):</text>
<line x1="15.000" y1="140.000" x2="15.000" y2="146.000" stroke="#000" stroke-width="0.180"/>
<line x1="15.500" y1="140.000" x2="15.500" y2="142.500" stroke="#000" stroke-width="0.120"/>
<line x1="16.000" y1="140.000" x2="16.000" y2="144.500" stroke="#000" stroke-width="0.180"/>
<line x1="16.500" y1="140.000" x2="16.500" y2="142.500" stroke="#000" stroke-width="0.120"/>
<line x1="17.000" y1="140.000" x2="17.000" y2="144.500" stroke="#000" stroke-width="0.180"/>
<line x1="17.500" y1="140.000" x2="17.500" y2="142.500" stroke="#000" stroke-width="0.120"/>
<line x1="18.000" y1="140.000" x2="18.000" y2="144.500" stroke="#000" stroke-width="0.180"/>
<line x1="18.500" y1="140.000" x2="18.500" y2="142.500" stroke="#000" stroke-width="0.120"/>
<line x1="19.000" y1="140.000" x2="19.000" y2="144.500" stroke="#000" stroke-width="0.180"/>
<line x1="19.500" y1="140.000" x2="19.500" y2="142.500" stroke="#000" stroke-width="0.120"/>
<line x1="20.000" y1="140.000" x2="20.000" y2="146.000" stroke="#000" stroke-width="0.180"/>
<line x1="20.500" y1="140.000" x2="20.500" y2="142.500" stroke="#000" stroke-width="0.120"/>
<line x1="21.000" y1="140.000" x2="21.000" y2="144.500" stroke="#000" stroke-width="0.180"/>
<line x1="21.500" y1="140.000" x2="21.500" y2="142.500" stroke="#000" stroke-width="0.120"/>
<line x1="22.000" y1="140.000" x2="22.000" y2="144.500" stroke="#000" stroke-width="0.180"/>
<line x1="22.500" y1="140.000" x2="22.500" y2="142.500" stroke="#000" stroke-width="0.120"/>
<line x1="23.000" y1="140.000" x2="23.000" y2="144.500" stroke="#000" stroke-width="0.180"/>
<line x1="23.500" y1="140.000" x2="23.500" y2="142.500" stroke="#000" stroke-width="0.120"/>
<line x1="24.000" y1="140.000" x2="24.000" y2="144.500" stroke="#000" stroke-width="0.180"/>
<line x1="24.500" y1="140.000" x2="24.500" y2="142.500" stroke="#000" stroke-width="0.120"/>
<line x1="25.000" y1="140.000" x2="25.000" y2="146.000" stroke="#000" stroke-width="0.180"/>
<line x1="25.500" y1="140.000" x2="25.500" y2="142.500" stroke="#000" stroke-width="0.120"/>
<line x1="26.000" y1="140.000" x2="26.000" y2="144.500" stroke="#000" stroke-width="0.180"/>
<line x1="26.500" y1="140.000" x2="26.500" y2="142.500" stroke="#000" stroke-width="0.120"/>
<line x1="27.000" y1="140.000" x2="27.000" y2="144.500" stroke="#000" stroke-width="0.180"/>
<line x1="27.500" y1="140.000" x2="27.500" y2="142.500" stroke="#000" stroke-width="0.120"/>
<line x1="28.000" y1="140.000" x2="28.000" y2="144.500" stroke="#000" stroke-width="0.180"/>
<line x1="28.500" y1="140.000" x2="28.500" y2="142.500" stroke="#000" stroke-width="0.120"/>
<line x1="29.000" y1="140.000" x2="29.000" y2="144.500" stroke="#000" stroke-width="0.180"/>
<line x1="29.500" y1="140.000" x2="29.500" y2="142.500" stroke="#000" stroke-width="0.120"/>
<line x1="30.000" y1="140.000" x2="30.000" y2="146.000" stroke="#000" stroke-width="0.180"/>
<line x1="30.500" y1="140.000" x2="30.500" y2="142.500" stroke="#000" stroke-width="0.120"/>
<line x1="31.000" y1="140.000" x2="31.000" y2="144.500" stroke="#000" stroke-width="0.180"/>
<line x1="31.500" y1="140.000" x2="31.500" y2="142.500" stroke="#000" stroke-width="0.120"/>
<line x1="32.000" y1="140.000" x2="32.000" y2="144.500" stroke="#000" stroke-width="0.180"/>
<line x1="32.500" y1="140.000" x2="32.500" y2="142.500" stroke="#000" stroke-width="0.120"/>
<line x1="33.000" y1="140.000" x2="33.000" y2="144.500" stroke="#000" stroke-width="0.180"/>
<line x1="33.500" y1="140.000" x2="33.500" y2="142.500" stroke="#000" stroke-width="0.120"/>
<line x1="34.000" y1="140.000" x2="34.000" y2="144.500" stroke="#000" stroke-width="0.180"/>
<line x1="34.500" y1="140.000" x2="34.500" y2="142.500" stroke="#000" stroke-width="0.120"/>
<line x1="35.000" y1="140.000" x2="35.000" y2="146.000" stroke="#000" stroke-width="0.180"/>
<line x1="15.000" y1="140.000" x2="35.000" y2="140.000" stroke="#000" stroke-width="0.200"/>
<text x="15.000" y="150.000" font-size="2.4" font-family="Helvetica,Arial,sans-serif" fill="#000" text-anchor="middle">0</text>
<text x="20.000" y="150.000" font-size="2.4" font-family="Helvetica,Arial,sans-serif" fill="#000" text-anchor="middle">5</text>
<text x="25.000" y="150.000" font-size="2.4" font-family="Helvetica,Arial,sans-serif" fill="#000" text-anchor="middle">10</text>
<text x="30.000" y="150.000" font-size="2.4" font-family="Helvetica,Arial,sans-serif" fill="#000" text-anchor="middle">15</text>
<text x="35.000" y="150.000" font-size="2.4" font-family="Helvetica,Arial,sans-serif" fill="#000" text-anchor="middle">20</text>
<text x="15.000" y="170.000" font-size="3.2" font-family="Helvetica,Arial,sans-serif" fill="#000" text-anchor="start">How to calibrate in pySimpleView:</text>
<text x="15.000" y="175.500" font-size="3" font-family="Helvetica,Arial,sans-serif" fill="#000" text-anchor="start">1. Place this sheet under the microscope; focus on the 1 mm grid.</text>
<text x="15.000" y="181.000" font-size="3" font-family="Helvetica,Arial,sans-serif" fill="#000" text-anchor="start">2. Click Calibrate… and drag a line across as MANY whole mm as you can see</text>
<text x="15.000" y="186.500" font-size="3" font-family="Helvetica,Arial,sans-serif" fill="#000" text-anchor="start">   (e.g. corner label 0 to 10) — a longer span = a more accurate result.</text>
<text x="15.000" y="192.000" font-size="3" font-family="Helvetica,Arial,sans-serif" fill="#000" text-anchor="start">3. Enter that real length in µm (10 mm = 10000 µm). Then use Measure.</text>
</svg>